<?xml version="1.0" standalone="no"?>
<!DOCTYPE svg PUBLIC "-//W3C//DTD SVG 20010904//EN"
 "http://www.w3.org/TR/2001/REC-SVG-20010904/DTD/svg10.dtd">
<svg version="1.0" xmlns="http://www.w3.org/2000/svg"
 width="1000.000000pt" height="1000.000000pt" viewBox="0 0 1000.000000 1000.000000"
 preserveAspectRatio="xMidYMid meet">
<metadata>
Created by potrace 1.14, written by Peter Selinger 2001-2017
</metadata>
<g transform="translate(0.000000,1000.000000) scale(0.100000,-0.100000)"
fill="#000000" stroke="none">
<path d="M4876 9289 c-86 -13 -197 -45 -271 -78 -159 -72 -121 -36 -1941
-1857 -1181 -1182 -1751 -1758 -1785 -1807 -56 -79 -108 -184 -134 -268 -92
-299 -22 -648 175 -879 95 -111 3458 -3468 3520 -3514 104 -77 256 -144 365
-163 17 -3 49 -8 72 -13 74 -13 252 -4 340 19 153 38 294 110 398 201 21 19
810 806 1753 1749 1825 1827 1779 1778 1851 1947 130 307 92 652 -104 929 -54
77 -3457 3484 -3545 3549 -195 145 -469 218 -694 185z m1720 -1617 c54 -16 90
-45 97 -78 5 -26 -19 -91 -109 -294 -51 -116 -214 -440 -266 -528 -68 -115
-107 -157 -139 -149 -13 3 -70 36 -127 72 -57 36 -130 79 -163 95 -61 32 -211
85 -264 94 -16 3 -41 8 -55 11 -118 24 -327 34 -435 20 -154 -19 -321 -81
-442 -163 -87 -59 -191 -175 -241 -270 -24 -45 -45 -89 -47 -99 -2 -10 -10
-38 -18 -63 -27 -80 -32 -131 -32 -355 0 -237 10 -309 48 -367 30 -44 68 -60
153 -66 116 -7 222 22 429 118 176 81 359 134 540 156 179 21 422 23 479 3 42
-15 77 -53 77 -85 1 -37 -45 -216 -128 -499 -76 -259 -150 -454 -195 -517 -19
-27 -25 -29 -60 -24 -22 4 -78 18 -126 32 -395 115 -811 28 -1005 -210 -139
-170 -188 -351 -182 -661 2 -99 6 -189 9 -200 2 -11 7 -49 11 -85 4 -36 9 -72
10 -82 2 -9 6 -38 10 -65 4 -26 13 -84 21 -128 7 -44 16 -96 19 -115 7 -44 51
-257 76 -370 44 -195 89 -413 89 -431 0 -26 -42 -51 -92 -52 -24 -1 -46 -6
-50 -12 -5 -6 -8 -6 -8 1 0 8 -136 11 -460 11 -446 0 -462 0 -488 20 -42 31
-70 79 -98 167 -24 77 -56 248 -69 371 -3 33 -8 74 -10 90 -5 39 -13 145 -20
270 -3 55 -8 134 -10 175 -26 450 -26 1995 0 2510 7 140 15 285 20 355 16 241
22 307 30 380 2 22 7 67 10 100 4 33 8 71 10 85 2 14 7 48 10 75 20 169 73
419 113 535 26 76 34 93 81 164 51 77 -70 71 1527 70 1067 0 1439 -3 1470 -12z"/>
</g>
</svg>
